<svg t="1697275115549" class="icon" viewBox="0 0 1024 1024" version="1.1" xmlns="http://www.w3.org/2000/svg" p-id="1336" width="200" height="200"><path d="M870.4 204.8h-256V102.4a102.4 102.4 0 0 0-204.8 0v102.4H153.6a153.6 153.6 0 0 0-153.6 153.6v512a153.6 153.6 0 0 0 153.6 153.6h716.8a153.6 153.6 0 0 0 153.6-153.6V358.4a153.6 153.6 0 0 0-153.6-153.6zM486.4 102.4a25.6 25.6 0 0 1 51.2 0v153.6a25.6 25.6 0 0 1-51.2 0z m460.8 768a76.8 76.8 0 0 1-76.8 76.8H153.6A76.8 76.8 0 0 1 76.8 870.4V358.4A76.8 76.8 0 0 1 153.6 281.6h259.072a102.4 102.4 0 0 0 198.656 0H870.4A76.8 76.8 0 0 1 947.2 358.4z" fill="#4B8EE6" p-id="1337"></path><path d="M665.6 755.2a38.4 38.4 0 0 1 0-76.8h153.6a38.4 38.4 0 0 1 0 76.8zM665.6 550.4a38.4 38.4 0 0 1 0-76.8h102.4a37.888 37.888 0 0 1 38.4 38.4 38.4 38.4 0 0 1-38.4 38.4h-102.4z" fill="#2EA7E0" p-id="1338"></path><path d="M185.856 844.288a38.4 38.4 0 0 1-32.256-44.032 399.36 399.36 0 0 1 37.376-110.08 234.496 234.496 0 0 1 76.288-89.6A126.464 126.464 0 0 1 231.936 512 128 128 0 0 1 358.4 384a128 128 0 0 1 94.208 214.528 223.232 223.232 0 0 1 79.36 94.72 385.536 385.536 0 0 1 32.768 108.544 39.424 39.424 0 0 1-33.792 43.008 38.912 38.912 0 0 1-43.008-33.792s-20.48-159.232-125.44-161.28c-15.872 0-64.512 0-102.4 75.776a330.24 330.24 0 0 0-29.696 87.04 38.912 38.912 0 0 1-37.888 32.256zM307.2 512a51.2 51.2 0 1 0 51.2-51.2 51.2 51.2 0 0 0-51.2 51.2z" fill="#2EA7E0" p-id="1339"></path></svg>